<svg width="39" height="39" viewBox="0 0 39 39" fill="none" xmlns="http://www.w3.org/2000/svg">
<path d="M4.33301 19.3412C4.33301 26.2823 9.32203 32.4748 16.1157 33.9268C19.5102 34.6522 23.1198 34.1635 26.1914 32.5451C29.1474 30.9875 31.5364 28.4339 32.8904 25.3787C34.299 22.2007 34.5445 18.5524 33.5839 15.2122C32.6574 11.9898 30.6241 9.13255 27.8945 7.18733C22.1881 3.12019 14.1727 3.66397 9.05907 8.44893C6.06239 11.2529 4.33301 15.2365 4.33301 19.3412ZM12.1025 18.5356L16.2677 14.3708C17.3073 13.3312 18.9197 14.9435 17.8796 15.9832L15.7873 18.0751L25.4614 18.0751C26.1515 18.0751 26.7275 18.6515 26.7275 19.3416C26.7275 20.0317 26.1515 20.6082 25.4614 20.6082L15.7391 20.6082L17.7903 22.7092C18.8159 23.7587 17.1888 25.3563 16.159 24.3018L12.093 20.1377C11.6567 19.6916 11.6609 18.9772 12.1025 18.5356Z" fill="#A5A5A5"/>
</svg>
