<svg width="26" height="26" viewBox="0 0 26 26" fill="none" xmlns="http://www.w3.org/2000/svg">
<path d="M24.1489 7.93034C23.1287 5.76794 21.513 3.95212 19.4775 2.67812C16.6463 0.91111 13.2928 0.349767 10.0419 1.10148C6.7909 1.84831 4.02318 3.82033 2.25613 6.65145C0.484206 9.48257 -0.0771485 12.8311 0.674578 16.0869C1.4263 19.3378 3.39837 22.1055 6.22466 23.8725C8.21625 25.1172 10.5007 25.7762 12.8389 25.7762H12.9902C15.3186 25.7469 17.5835 25.0733 19.5458 23.8334C20.117 23.4722 20.2829 22.7205 19.9217 22.1494C19.5605 21.5783 18.8088 21.4123 18.2376 21.7735C16.661 22.7742 14.8353 23.316 12.9609 23.3404C11.0377 23.3648 9.15835 22.8328 7.51822 21.8126C5.23863 20.3873 3.6522 18.1614 3.05179 15.5451C2.45139 12.9287 2.90047 10.2343 4.32582 7.95474C7.26439 3.25411 13.4832 1.81902 18.1839 4.75753C19.8241 5.78259 21.1225 7.24208 21.9426 8.9798C22.7431 10.6736 23.0555 12.5529 22.8456 14.4077C22.7724 15.0765 23.2508 15.6817 23.9244 15.755C24.5931 15.8282 25.1984 15.3498 25.2717 14.6762C25.5304 12.3674 25.1399 10.0342 24.1489 7.93034Z" fill="#2BC155"/>
<path d="M16.8874 9.03925L10.9999 14.9265L8.8177 12.7444C8.33928 12.266 7.56795 12.266 7.08953 12.7444C6.61111 13.2228 6.61111 13.9941 7.08953 14.4725L10.1358 17.5187C10.375 17.7579 10.6874 17.875 10.9999 17.875C11.3123 17.875 11.6248 17.7579 11.864 17.5187L18.6107 10.7674C19.0891 10.289 19.0891 9.51765 18.6107 9.03925C18.1322 8.56573 17.3609 8.56573 16.8874 9.03925Z" fill="#2BC155"/>
</svg>
