<svg width="26" height="26" viewBox="0 0 26 26" fill="none" xmlns="http://www.w3.org/2000/svg">
<path d="M24.149 7.42809C23.1285 5.265 21.5123 3.4486 19.4762 2.17418C16.6442 0.406606 13.2945 -0.154917 10.0377 0.597036C6.78576 1.34411 4.01721 3.31676 2.24963 6.14879C0.477166 8.98083 -0.0843571 12.3304 0.667596 15.5873C1.41955 18.8392 3.3922 21.6078 6.21935 23.3754C8.21154 24.6205 10.4967 25.2797 12.8356 25.2797H12.9869C15.316 25.2504 17.5817 24.5765 19.5445 23.3363C20.1158 22.975 20.2819 22.223 19.9205 21.6517C19.5592 21.0804 18.8072 20.9144 18.236 21.2757C16.6588 22.2767 14.8326 22.8187 12.9576 22.8431C11.0338 22.8675 9.15392 22.3353 7.5133 21.3148C5.23303 19.889 3.64611 17.6625 3.04553 15.0453C2.44494 12.4183 2.89416 9.72301 4.31994 7.44274C7.25939 2.74059 13.4801 1.30504 18.1822 4.2445C19.8229 5.26989 21.1217 6.72985 21.942 8.46813C22.7428 10.1625 23.0553 12.0423 22.8453 13.8978C22.7721 14.5668 23.2506 15.1722 23.9244 15.2455C24.5934 15.3187 25.1988 14.8402 25.2721 14.1664C25.5309 11.8666 25.1403 9.53258 24.149 7.42809Z" fill="#FF2E2E"/>
<path d="M17.0847 8.5376C16.6062 8.05908 15.8347 8.05908 15.3562 8.5376L12.8464 11.0522L10.3367 8.54248C9.85815 8.06397 9.08667 8.06397 8.60815 8.54248C8.12964 9.021 8.12964 9.79248 8.60815 10.271L11.1179 12.7808L8.60815 15.2905C8.12964 15.769 8.12964 16.5405 8.60815 17.019C8.84741 17.2583 9.15991 17.3755 9.47241 17.3755C9.78491 17.3755 10.0974 17.2583 10.3367 17.019L12.8464 14.5093L15.3562 17.019C15.5955 17.2583 15.908 17.3755 16.2205 17.3755C16.533 17.3755 16.8455 17.2583 17.0847 17.019C17.5632 16.5405 17.5632 15.769 17.0847 15.2905L14.575 12.7759L17.0847 10.2661C17.5632 9.7876 17.5632 9.01611 17.0847 8.5376Z" fill="#FF2E2E"/>
</svg>
