<svg width="40" height="40" viewBox="0 0 40 40" fill="none" xmlns="http://www.w3.org/2000/svg">
<path d="M10 32.5H28.75C29.7442 32.4989 30.6974 32.1035 31.4004 31.4004C32.1035 30.6974 32.4989 29.7442 32.5 28.75V18.75C32.5 18.4185 32.3683 18.1005 32.1339 17.8661C31.8995 17.6317 31.5815 17.5 31.25 17.5C30.9185 17.5 30.6005 17.6317 30.3661 17.8661C30.1317 18.1005 30 18.4185 30 18.75V28.75C29.9997 29.0814 29.8679 29.3992 29.6336 29.6336C29.3992 29.8679 29.0814 29.9997 28.75 30H10C9.66857 29.9997 9.3508 29.8679 9.11645 29.6336C8.88209 29.3992 8.7503 29.0814 8.75 28.75V11.25C8.7503 10.9186 8.88209 10.6008 9.11645 10.3664C9.3508 10.1321 9.66857 10.0003 10 10H21.25C21.5815 10 21.8995 9.8683 22.1339 9.63388C22.3683 9.39946 22.5 9.08152 22.5 8.75C22.5 8.41848 22.3683 8.10054 22.1339 7.86612C21.8995 7.6317 21.5815 7.5 21.25 7.5H10C9.00577 7.50109 8.05258 7.89653 7.34956 8.59956C6.64653 9.30258 6.25109 10.2558 6.25 11.25V28.75C6.25109 29.7442 6.64653 30.6974 7.34956 31.4004C8.05258 32.1035 9.00577 32.4989 10 32.5Z" fill="#2F4CDD"/>
<path d="M31.25 2.5C30.0139 2.5 28.8055 2.86656 27.7777 3.55331C26.7499 4.24007 25.9488 5.21619 25.4758 6.35823C25.0027 7.50027 24.8789 8.75693 25.1201 9.96931C25.3613 11.1817 25.9565 12.2953 26.8306 13.1694C27.7047 14.0435 28.8183 14.6388 30.0307 14.8799C31.2431 15.1211 32.4997 14.9973 33.6418 14.5242C34.7838 14.0512 35.7599 13.2501 36.4467 12.2223C37.1334 11.1945 37.5 9.98613 37.5 8.75C37.498 7.093 36.8389 5.50442 35.6673 4.33274C34.4956 3.16106 32.907 2.50195 31.25 2.5ZM31.25 12.5C30.5083 12.5 29.7833 12.2801 29.1666 11.868C28.5499 11.456 28.0693 10.8703 27.7855 10.1851C27.5016 9.49984 27.4274 8.74584 27.5721 8.01841C27.7167 7.29098 28.0739 6.6228 28.5983 6.09835C29.1228 5.5739 29.791 5.21675 30.5184 5.07206C31.2458 4.92736 31.9998 5.00162 32.6851 5.28545C33.3703 5.56928 33.9559 6.04993 34.368 6.66661C34.7801 7.2833 35 8.00832 35 8.75C34.9989 9.74423 34.6035 10.6974 33.9004 11.4004C33.1974 12.1035 32.2442 12.4989 31.25 12.5Z" fill="#2F4CDD"/>
<path d="M12.5 15H18.75C19.0815 15 19.3995 14.8683 19.6339 14.6339C19.8683 14.3995 20 14.0815 20 13.75C20 13.4185 19.8683 13.1005 19.6339 12.8661C19.3995 12.6317 19.0815 12.5 18.75 12.5H12.5C12.1685 12.5 11.8505 12.6317 11.6161 12.8661C11.3817 13.1005 11.25 13.4185 11.25 13.75C11.25 14.0815 11.3817 14.3995 11.6161 14.6339C11.8505 14.8683 12.1685 15 12.5 15Z" fill="#2F4CDD"/>
<path d="M11.25 18.75C11.25 19.0815 11.3817 19.3995 11.6161 19.6339C11.8505 19.8683 12.1685 20 12.5 20H23.75C24.0815 20 24.3995 19.8683 24.6339 19.6339C24.8683 19.3995 25 19.0815 25 18.75C25 18.4185 24.8683 18.1005 24.6339 17.8661C24.3995 17.6317 24.0815 17.5 23.75 17.5H12.5C12.1685 17.5 11.8505 17.6317 11.6161 17.8661C11.3817 18.1005 11.25 18.4185 11.25 18.75Z" fill="#2F4CDD"/>
</svg>
