<svg width="30" height="30" viewBox="0 0 30 30" fill="none" xmlns="http://www.w3.org/2000/svg">
<path fill-rule="evenodd" clip-rule="evenodd" d="M22.7922 8.57136H20.8441V7.49993C20.8441 6.64745 20.5363 5.82988 19.9883 5.22709C19.4403 4.62429 18.6971 4.28564 17.9221 4.28564H12.0779C11.3029 4.28564 10.5597 4.62429 10.0117 5.22709C9.4637 5.82988 9.15584 6.64745 9.15584 7.49993V8.57136H7.20778C6.4328 8.57136 5.68956 8.91001 5.14156 9.5128C4.59357 10.1156 4.28571 10.9332 4.28571 11.7856V22.4999C4.28571 23.3524 4.59357 24.17 5.14156 24.7728C5.68956 25.3756 6.4328 25.7142 7.20778 25.7142H22.7922C23.5672 25.7142 24.3104 25.3756 24.8584 24.7728C25.4064 24.17 25.7143 23.3524 25.7143 22.4999V11.7856C25.7143 10.9332 25.4064 10.1156 24.8584 9.5128C24.3104 8.91001 23.5672 8.57136 22.7922 8.57136ZM11.1039 7.49993C11.1039 7.21577 11.2065 6.94325 11.3892 6.74232C11.5718 6.54138 11.8196 6.4285 12.0779 6.4285H17.9221C18.1804 6.4285 18.4281 6.54138 18.6108 6.74232C18.7935 6.94325 18.8961 7.21577 18.8961 7.49993V8.57136H11.1039V7.49993ZM23.7662 22.4999C23.7662 22.7841 23.6636 23.0566 23.4809 23.2575C23.2983 23.4585 23.0505 23.5714 22.7922 23.5714H7.20778C6.94946 23.5714 6.70171 23.4585 6.51904 23.2575C6.33638 23.0566 6.23376 22.7841 6.23376 22.4999V11.7856C6.23376 11.5015 6.33638 11.229 6.51904 11.028C6.70171 10.8271 6.94946 10.7142 7.20778 10.7142H22.7922C23.0505 10.7142 23.2983 10.8271 23.4809 11.028C23.6636 11.229 23.7662 11.5015 23.7662 11.7856V22.4999Z" fill="#3E4954"/>
</svg>
