<svg width="19" height="19" viewBox="0 0 19 19" fill="none" xmlns="http://www.w3.org/2000/svg">
<path d="M9.52259 8.38525C9.12101 8.38525 8.72845 8.50434 8.39456 8.72744C8.06066 8.95054 7.80042 9.26765 7.64674 9.63866C7.49307 10.0097 7.45286 10.4179 7.5312 10.8118C7.60955 11.2056 7.80292 11.5674 8.08688 11.8514C8.37083 12.1353 8.73262 12.3287 9.12647 12.407C9.52033 12.4854 9.92858 12.4452 10.2996 12.2915C10.6706 12.1378 10.9877 11.8776 11.2108 11.5437C11.4339 11.2098 11.553 10.8172 11.553 10.4157C11.5511 9.87775 11.3366 9.36241 10.9562 8.98204C10.5758 8.60168 10.0605 8.38715 9.52259 8.38525Z" fill="#604FB1"/>
<path d="M15.095 5.26041H12.935L11.8838 3.76281C11.7076 3.49424 11.4671 3.27389 11.1843 3.12176C10.9014 2.96963 10.585 2.89052 10.2638 2.89161H8.78057C8.45937 2.89052 8.14297 2.96963 7.86008 3.12176C7.57719 3.27389 7.33675 3.49424 7.16057 3.76281L6.14537 5.26041H3.98537C3.72429 5.25558 3.4649 5.3032 3.22257 5.40045C2.98023 5.49769 2.75988 5.6426 2.57457 5.82656C2.38926 6.01053 2.24276 6.22982 2.14375 6.47145C2.04474 6.71307 1.99523 6.97211 1.99817 7.23321V13.598C2.00007 14.1149 2.20625 14.6101 2.57176 14.9756C2.93727 15.3411 3.43246 15.5473 3.94937 15.5492H15.095C15.354 15.553 15.6111 15.5054 15.8516 15.4092C16.0921 15.3129 16.311 15.1699 16.4959 14.9884C16.6807 14.807 16.8277 14.5906 16.9283 14.352C17.0289 14.1133 17.0812 13.857 17.0822 13.598V7.23321C17.0851 6.97211 17.0356 6.71307 16.9366 6.47145C16.8376 6.22982 16.6911 6.01053 16.5058 5.82656C16.3205 5.6426 16.1001 5.49769 15.8578 5.40045C15.6154 5.3032 15.356 5.25558 15.095 5.26041ZM9.52217 13.1804C8.97789 13.1804 8.44584 13.0189 7.99338 12.7164C7.54093 12.4138 7.18841 11.9839 6.98045 11.4809C6.77249 10.9779 6.71845 10.4245 6.82516 9.89078C6.93187 9.35706 7.19453 8.867 7.5799 8.48264C7.96527 8.09828 8.45602 7.8369 8.99002 7.73159C9.52402 7.62628 10.0773 7.68177 10.5797 7.89105C11.0821 8.10032 11.5112 8.45397 11.8125 8.90722C12.1139 9.36046 12.274 9.89293 12.2726 10.4372C12.2707 11.1654 11.98 11.8631 11.4645 12.3774C10.9489 12.8916 10.2504 13.1804 9.52217 13.1804Z" fill="#604FB1"/>
</svg>
