<svg width="29" height="28" viewBox="0 0 29 28" fill="none" xmlns="http://www.w3.org/2000/svg">
<g clip-path="url(#clip0)">
<path d="M22.928 2.856H22.368V1.428C22.368 0.56 21.78 0 20.94 0C20.1 0 19.512 0.56 19.512 1.428V2.856H10.216V1.428C10.216 0.56 9.65601 0 8.78801 0C7.92001 0 7.36001 0.56 7.36001 1.428V2.856H6.07201C3.35601 2.856 1.06001 5.152 1.06001 7.868V23.016C1.06001 25.732 3.35601 28.028 6.07201 28.028H22.928C25.644 28.028 27.94 25.732 27.94 23.016V7.868C27.94 5.152 25.644 2.856 22.928 2.856ZM6.07201 5.712H22.928C24.076 5.712 25.084 6.72 25.084 7.868V9.856H3.91601V7.868C3.91601 6.72 4.92401 5.712 6.07201 5.712ZM22.928 25.144H6.07201C4.92401 25.144 3.91601 24.136 3.91601 22.988V12.712H25.056V22.988C25.084 24.136 24.076 25.144 22.928 25.144Z" fill="#2F4CDD"/>
</g>
<defs>
<clipPath id="clip0">
<rect width="28" height="28" fill="white" transform="translate(0.5)"/>
</clipPath>
</defs>
</svg>
