<svg width="28" height="26" viewBox="0 0 28 26" fill="none" xmlns="http://www.w3.org/2000/svg">
<path d="M25.5588 9.26076C25.0482 9.1866 24.5609 8.99821 24.1333 8.70962C23.7056 8.42103 23.3485 8.03968 23.0887 7.59397C22.8288 7.14825 22.6728 6.64966 22.6324 6.13531C22.5919 5.62097 22.668 5.10412 22.855 4.62326C22.9739 4.3089 22.9914 3.96521 22.9051 3.6404C22.8188 3.31558 22.633 3.02591 22.3738 2.81201C21.2293 1.85097 19.9266 1.096 18.5238 0.580762C18.2043 0.462097 17.8556 0.447271 17.5272 0.538395C17.1989 0.62952 16.9076 0.821947 16.695 1.08826C16.375 1.49746 15.966 1.82841 15.4991 2.05602C15.0321 2.28363 14.5195 2.40192 14 2.40192C13.4806 2.40192 12.9679 2.28363 12.501 2.05602C12.034 1.82841 11.625 1.49746 11.305 1.08826C11.0924 0.821947 10.8012 0.62952 10.4728 0.538395C10.1445 0.447271 9.79571 0.462097 9.47627 0.580762C8.18098 1.05645 6.96991 1.73583 5.88877 2.59326C5.61625 2.80901 5.41995 3.10633 5.32863 3.44171C5.23731 3.77708 5.25575 4.13288 5.38127 4.45701C5.58318 4.95059 5.6666 5.48462 5.62485 6.01626C5.58309 6.5479 5.41731 7.06236 5.14082 7.51836C4.86433 7.97436 4.48481 8.35922 4.03271 8.64205C3.58062 8.92489 3.06853 9.09783 2.53752 9.14701C2.19278 9.18387 1.86898 9.33045 1.61379 9.56515C1.35861 9.79986 1.18552 10.1103 1.12002 10.4508C0.957092 11.2572 0.875019 12.078 0.875019 12.9008C0.873821 13.5896 0.929427 14.2773 1.04127 14.957C1.09693 15.3084 1.2668 15.6316 1.5246 15.8768C1.78241 16.1219 2.11379 16.2753 2.46752 16.3133C3.01019 16.3642 3.53277 16.5444 3.99151 16.8387C4.45026 17.133 4.83182 17.533 5.10427 18.0051C5.37672 18.4771 5.53213 19.0076 5.55749 19.5521C5.58284 20.0965 5.47741 20.6392 5.25002 21.1345C5.10121 21.4567 5.06429 21.8194 5.14514 22.165C5.22599 22.5106 5.41996 22.8193 5.69627 23.042C6.83387 23.9856 8.12402 24.7283 9.51127 25.2383C9.68867 25.2997 9.8748 25.3322 10.0625 25.3345C10.3199 25.334 10.5734 25.2717 10.8018 25.1529C11.0302 25.0342 11.2267 24.8624 11.375 24.652C11.6869 24.1976 12.1049 23.8262 12.5929 23.5701C13.0808 23.3139 13.6239 23.1807 14.175 23.182C14.709 23.1827 15.2354 23.308 15.7124 23.548C16.1894 23.788 16.6038 24.1361 16.9225 24.5645C17.1345 24.8495 17.4349 25.0564 17.7767 25.1529C18.1186 25.2495 18.4827 25.2303 18.8125 25.0983C20.081 24.5877 21.2619 23.8822 22.3125 23.007C22.5764 22.7888 22.7644 22.4925 22.8493 22.1608C22.9342 21.829 22.9117 21.4789 22.785 21.1608C22.5792 20.6735 22.4895 20.1452 22.5229 19.6173C22.5563 19.0895 22.712 18.5766 22.9776 18.1192C23.2432 17.6619 23.6114 17.2725 24.0533 16.9818C24.4952 16.6912 24.9986 16.5073 25.5238 16.4445C25.8643 16.3974 26.181 16.2431 26.428 16.004C26.675 15.7649 26.8394 15.4533 26.8975 15.1145C27.038 14.3847 27.1142 13.6439 27.125 12.9008C27.1252 12.1169 27.052 11.3347 26.9063 10.5645C26.8472 10.2331 26.6852 9.92883 26.4433 9.69479C26.2014 9.46074 25.8919 9.30888 25.5588 9.26076ZM18.375 12.9008C18.375 13.7661 18.1184 14.6119 17.6377 15.3314C17.157 16.0508 16.4737 16.6116 15.6743 16.9427C14.8748 17.2739 13.9952 17.3605 13.1465 17.1917C12.2978 17.0229 11.5183 16.6062 10.9064 15.9944C10.2946 15.3825 9.87789 14.6029 9.70908 13.7543C9.54027 12.9056 9.62691 12.0259 9.95805 11.2265C10.2892 10.4271 10.8499 9.74381 11.5694 9.26308C12.2889 8.78235 13.1347 8.52576 14 8.52576C15.1603 8.52576 16.2731 8.9867 17.0936 9.80717C17.9141 10.6276 18.375 11.7404 18.375 12.9008Z" fill="#969BA0"/>
</svg>
