<svg width="40" height="40" viewBox="0 0 40 40" fill="none" xmlns="http://www.w3.org/2000/svg">
<path d="M33.75 13.75H32.0064L32.2189 11.6224C32.2709 11.1011 32.2131 10.5747 32.0493 10.0772C31.8854 9.57959 31.6192 9.12186 31.2676 8.73348C30.9161 8.3451 30.4871 8.03468 30.0082 7.82223C29.5294 7.60978 29.0114 7.50001 28.4875 7.5H9.0125C8.48854 7.50004 7.9704 7.60986 7.49148 7.82239C7.01256 8.03492 6.58348 8.34543 6.23189 8.73392C5.88031 9.12241 5.61403 9.58026 5.45021 10.0779C5.28639 10.5756 5.22866 11.1021 5.28075 11.6235L7.2815 31.6224C7.31508 31.9222 7.38467 32.2168 7.48875 32.5H3.75C3.41848 32.5 3.10054 32.6317 2.86612 32.8661C2.6317 33.1005 2.5 33.4185 2.5 33.75C2.5 34.0815 2.6317 34.3995 2.86612 34.6339C3.10054 34.8683 3.41848 35 3.75 35H33.75C34.0815 35 34.3995 34.8683 34.6339 34.6339C34.8683 34.3995 35 34.0815 35 33.75C35 33.4185 34.8683 33.1005 34.6339 32.8661C34.3995 32.6317 34.0815 32.5 33.75 32.5H30.0115C30.1154 32.2172 30.1849 31.9229 30.2185 31.6235L30.881 25H33.75C34.7442 24.9989 35.6974 24.6035 36.4004 23.9004C37.1035 23.1974 37.4989 22.2442 37.5 21.25V17.5C37.4989 16.5058 37.1035 15.5526 36.4004 14.8496C35.6974 14.1465 34.7442 13.7511 33.75 13.75ZM11.0125 32.5C10.7024 32.501 10.4031 32.3862 10.1733 32.1782C9.9434 31.9701 9.79949 31.6836 9.76975 31.375L7.7685 11.3758C7.75109 11.2019 7.7703 11.0263 7.82488 10.8603C7.87946 10.6943 7.96821 10.5416 8.0854 10.412C8.2026 10.2824 8.34564 10.1788 8.50532 10.1078C8.665 10.0369 8.83777 10.0001 9.0125 10H28.4875C28.6622 10.0001 28.8349 10.0368 28.9945 10.1077C29.1541 10.1786 29.2972 10.2822 29.4143 10.4117C29.5315 10.5412 29.6203 10.6939 29.6749 10.8598C29.7295 11.0257 29.7488 11.2012 29.7315 11.375L27.7308 31.3762C27.7007 31.6848 27.5566 31.971 27.3267 32.1788C27.0967 32.3867 26.7975 32.5012 26.4875 32.5H11.0125ZM35 21.25C34.9998 21.5815 34.868 21.8993 34.6337 22.1337C34.3993 22.368 34.0815 22.4998 33.75 22.5H31.1311L31.7561 16.25H33.75C34.0815 16.2502 34.3993 16.382 34.6337 16.6163C34.868 16.8507 34.9998 17.1685 35 17.5V21.25Z" fill="#2F4CDD"/>
</svg>
