<svg width="40" height="40" viewBox="0 0 40 40" fill="none" xmlns="http://www.w3.org/2000/svg">
<path d="M16.25 21.25C17.2389 21.25 18.2056 20.9568 19.0279 20.4074C19.8501 19.8579 20.491 19.0771 20.8694 18.1634C21.2478 17.2498 21.3469 16.2445 21.1539 15.2746C20.961 14.3046 20.4848 13.4137 19.7855 12.7145C19.0863 12.0152 18.1954 11.539 17.2255 11.3461C16.2555 11.1531 15.2502 11.2522 14.3366 11.6306C13.423 12.009 12.6421 12.6499 12.0927 13.4722C11.5432 14.2944 11.25 15.2611 11.25 16.25C11.2513 17.5757 11.7785 18.8467 12.7159 19.7841C13.6533 20.7215 14.9243 21.2487 16.25 21.25ZM16.25 13.75C16.7445 13.75 17.2278 13.8966 17.6389 14.1713C18.05 14.446 18.3705 14.8365 18.5597 15.2933C18.7489 15.7501 18.7984 16.2528 18.702 16.7377C18.6055 17.2227 18.3674 17.6681 18.0178 18.0178C17.6681 18.3674 17.2227 18.6055 16.7377 18.702C16.2528 18.7984 15.7501 18.7489 15.2933 18.5597C14.8365 18.3705 14.446 18.0501 14.1713 17.6389C13.8966 17.2278 13.75 16.7445 13.75 16.25C13.7509 15.5872 14.0146 14.9519 14.4832 14.4832C14.9519 14.0146 15.5872 13.7509 16.25 13.75Z" fill="#2F4CDD"/>
<path d="M35.78 24.4625C36.1927 23.9098 36.4684 23.2672 36.5844 22.5873C36.7005 21.9074 36.6537 21.2097 36.4478 20.5514L35.6543 17.9696C35.2817 16.7451 34.5244 15.6733 33.4946 14.9132C32.4648 14.1531 31.2174 13.7452 29.9375 13.75H24.3287C23.9971 13.75 23.6792 13.8817 23.4448 14.1161C23.2103 14.3505 23.0787 14.6685 23.0787 15C23.0787 15.3315 23.2103 15.6495 23.4448 15.8839C23.6792 16.1183 23.9971 16.25 24.3287 16.25H29.9375C30.6823 16.2474 31.4081 16.485 32.0073 16.9274C32.6064 17.3698 33.0471 17.9935 33.2639 18.706L34.0574 21.2866C34.145 21.5713 34.1645 21.8725 34.1145 22.1661C34.0645 22.4597 33.9463 22.7374 33.7694 22.977C33.5925 23.2166 33.3619 23.4114 33.0961 23.5456C32.8302 23.6799 32.5366 23.7499 32.2388 23.75H20.7777C20.7423 23.75 20.7127 23.7671 20.6777 23.7701C20.5937 23.7669 20.5125 23.75 20.4273 23.75H12.5898C11.2007 23.7449 9.84705 24.1879 8.72972 25.0132C7.61239 25.8385 6.79097 27.0021 6.3874 28.3312L5.45415 31.3625C5.23616 32.0719 5.18764 32.8225 5.31248 33.554C5.43732 34.2856 5.73204 34.9776 6.17296 35.5746C6.61388 36.1715 7.18869 36.6567 7.85119 36.9911C8.51369 37.3255 9.24541 37.4998 9.98753 37.5H23.0287C23.7708 37.4999 24.5026 37.3256 25.1652 36.9912C25.8277 36.6569 26.4026 36.1717 26.8436 35.5748C27.2845 34.9778 27.5793 34.2857 27.7042 33.5542C27.829 32.8226 27.7805 32.0719 27.5625 31.3625L26.6299 28.3315C26.3936 27.5767 26.0217 26.8713 25.5323 26.25H32.2388C32.9283 26.2532 33.6088 26.0928 34.2244 25.7821C34.8399 25.4714 35.3731 25.0192 35.78 24.4625ZM24.8328 34.089C24.6255 34.3726 24.3539 34.6031 24.0403 34.7614C23.7267 34.9198 23.38 35.0015 23.0287 35H9.98753C9.63653 34.9999 9.29043 34.9175 8.97708 34.7594C8.66373 34.6012 8.39187 34.3717 8.18337 34.0894C7.97487 33.807 7.83555 33.4796 7.77661 33.1336C7.71767 32.7876 7.74077 32.4326 7.84403 32.0971L8.77665 29.0661C9.02442 28.2489 9.52925 27.5335 10.2161 27.0261C10.903 26.5188 11.7352 26.2466 12.5892 26.25H20.4267C21.2806 26.2466 22.1128 26.5188 22.7997 27.0261C23.4865 27.5335 23.9914 28.2489 24.2392 29.0661L25.1718 32.0971C25.2769 32.4323 25.301 32.7877 25.2421 33.134C25.1832 33.4804 25.0429 33.8078 24.8328 34.0894V34.089Z" fill="#2F4CDD"/>
<path d="M26.875 11.25C27.7403 11.25 28.5861 10.9934 29.3056 10.5127C30.0251 10.0319 30.5858 9.34866 30.917 8.54923C31.2481 7.74981 31.3347 6.87014 31.1659 6.02148C30.9971 5.17281 30.5804 4.39326 29.9686 3.78141C29.3567 3.16955 28.5772 2.75288 27.7285 2.58407C26.8798 2.41526 26.0002 2.5019 25.2008 2.83303C24.4013 3.16416 23.7181 3.72492 23.2373 4.44438C22.7566 5.16384 22.5 6.0097 22.5 6.875C22.5014 8.03489 22.9628 9.14688 23.7829 9.96705C24.6031 10.7872 25.7151 11.2486 26.875 11.25ZM26.875 5C27.2458 5 27.6083 5.10997 27.9167 5.31599C28.225 5.52202 28.4654 5.81485 28.6073 6.15747C28.7492 6.50008 28.7863 6.87708 28.714 7.24079C28.6416 7.6045 28.463 7.9386 28.2008 8.20082C27.9386 8.46304 27.6045 8.64162 27.2408 8.71397C26.8771 8.78631 26.5001 8.74918 26.1575 8.60727C25.8149 8.46535 25.522 8.22503 25.316 7.91669C25.11 7.60835 25 7.24584 25 6.875C25.0006 6.37789 25.1983 5.9013 25.5498 5.54979C25.9013 5.19829 26.3779 5.00056 26.875 5Z" fill="#2F4CDD"/>
</svg>
