<svg width="24" height="24" viewBox="0 0 24 24" fill="none" xmlns="http://www.w3.org/2000/svg">
<path d="M12 21.75C14.5859 21.75 17.0658 20.7228 18.8943 18.8943C20.7228 17.0658 21.75 14.5859 21.75 12C21.75 9.41414 20.7228 6.93419 18.8943 5.10571C17.0658 3.27723 14.5859 2.25 12 2.25C11.8011 2.25 11.6103 2.32902 11.4697 2.46967C11.329 2.61032 11.25 2.80109 11.25 3V5.25C11.25 5.44891 11.329 5.63968 11.4697 5.78033C11.6103 5.92098 11.8011 6 12 6C12.1989 6 12.3897 5.92098 12.5303 5.78033C12.671 5.63968 12.75 5.44891 12.75 5.25V3.78367C14.3112 3.9263 15.7995 4.51081 17.0405 5.46877C18.2816 6.42672 19.2239 7.71844 19.7573 9.19266C20.2907 10.6669 20.393 12.2626 20.0522 13.7928C19.7114 15.3231 18.9417 16.7245 17.8331 17.8331C16.7245 18.9417 15.3231 19.7114 13.7928 20.0522C12.2626 20.393 10.6669 20.2907 9.19266 19.7573C7.71844 19.2239 6.42672 18.2816 5.46877 17.0405C4.51081 15.7995 3.9263 14.3112 3.78367 12.75H5.25C5.44891 12.75 5.63968 12.671 5.78033 12.5303C5.92098 12.3897 6 12.1989 6 12C6 11.8011 5.92098 11.6103 5.78033 11.4697C5.63968 11.329 5.44891 11.25 5.25 11.25H3C2.80109 11.25 2.61032 11.329 2.46967 11.4697C2.32902 11.6103 2.25 11.8011 2.25 12C2.25292 14.585 3.28108 17.0632 5.10893 18.8911C6.93678 20.7189 9.41503 21.7471 12 21.75Z" fill="#969BA0"/>
<path d="M10.5558 11.6164C10.5205 11.7413 10.5017 11.8702 10.4999 12C10.4999 12.2966 10.5879 12.5866 10.7527 12.8333C10.9176 13.08 11.1518 13.2722 11.4259 13.3858C11.7 13.4993 12.0016 13.529 12.2926 13.4711C12.5836 13.4133 12.8508 13.2704 13.0606 13.0606C13.2704 12.8508 13.4133 12.5836 13.4711 12.2926C13.529 12.0016 13.4993 11.7 13.3858 11.4259C13.2722 11.1518 13.08 10.9176 12.8333 10.7527C12.5866 10.5879 12.2966 10.4999 12 10.4999C11.8702 10.5017 11.7412 10.5205 11.6164 10.5559L6.15519 5.09469C6.08601 5.02306 6.00325 4.96592 5.91174 4.92661C5.82024 4.88731 5.72183 4.86662 5.62224 4.86575C5.52266 4.86489 5.4239 4.88386 5.33172 4.92157C5.23955 4.95928 5.15581 5.01497 5.08539 5.08539C5.01497 5.15581 4.95928 5.23955 4.92157 5.33172C4.88386 5.4239 4.86489 5.52266 4.86575 5.62224C4.86662 5.72183 4.88731 5.82024 4.92661 5.91174C4.96592 6.00325 5.02306 6.08601 5.09469 6.15519L10.5558 11.6164Z" fill="#969BA0"/>
<path d="M15.75 12C15.75 12.1989 15.829 12.3897 15.9697 12.5303C16.1103 12.671 16.3011 12.75 16.5 12.75H18C18.1989 12.75 18.3897 12.671 18.5303 12.5303C18.671 12.3897 18.75 12.1989 18.75 12C18.75 11.8011 18.671 11.6103 18.5303 11.4697C18.3897 11.329 18.1989 11.25 18 11.25H16.5C16.3011 11.25 16.1103 11.329 15.9697 11.4697C15.829 11.6103 15.75 11.8011 15.75 12Z" fill="#969BA0"/>
<path d="M15.7125 7.22665L14.6514 8.28738C14.5817 8.35701 14.5265 8.43969 14.4887 8.53069C14.451 8.62169 14.4316 8.71923 14.4315 8.81774C14.4315 8.91625 14.4509 9.01381 14.4885 9.10483C14.5262 9.19586 14.5814 9.27857 14.651 9.34826C14.7207 9.41794 14.8034 9.47323 14.8944 9.51096C14.9854 9.54869 15.0829 9.56812 15.1814 9.56816C15.2799 9.56819 15.3775 9.54883 15.4685 9.51116C15.5595 9.47349 15.6422 9.41827 15.7119 9.34863L16.7732 8.28813C16.8429 8.21848 16.8982 8.13579 16.936 8.04477C16.9737 7.95375 16.9932 7.85619 16.9932 7.75766C16.9932 7.65912 16.9739 7.56155 16.9362 7.47051C16.8985 7.37946 16.8433 7.29673 16.7736 7.22703C16.704 7.15733 16.6213 7.10203 16.5303 7.0643C16.4392 7.02656 16.3417 7.00711 16.2432 7.00708C16.1446 7.00705 16.047 7.02642 15.956 7.06409C15.865 7.10177 15.7822 7.15701 15.7125 7.22665Z" fill="#969BA0"/>
</svg>
