<svg width="20" height="36" viewBox="0 0 20 36" fill="none" xmlns="http://www.w3.org/2000/svg">
<path d="M8.68 35.48H10.84V32.24C16.28 31.88 19.08 28.08 19.08 24.36C19.08 18.8 14.8 17.64 10.84 16.64V6.88C13.28 7.4 14.6 9.2 14.84 10.92H18.72C18.32 6.88 15.4 4.2 10.84 3.8V0.479998H8.68V3.8C3.68 4.12 0.4 7.2 0.4 11.52C0.4 17.04 4.68 18.2 8.68 19.24V29.24C5.84 28.8 4.52 26.84 4.32 24.76H0.44C0.52 29 3.88 31.8 8.68 32.24V35.48ZM15.44 24.56C15.44 26.96 13.8 28.96 10.84 29.28V19.84C13.4 20.6 15.44 21.72 15.44 24.56ZM4.12 11.32C4.12 8.48 6 7.04 8.68 6.8V16.04C6.12 15.24 4.12 14.16 4.12 11.32Z" fill="#2F4CDD"/>
</svg>
