<svg width="29" height="28" viewBox="0 0 29 28" fill="none" xmlns="http://www.w3.org/2000/svg">
<rect width="28" height="28" transform="translate(0.25)" fill="white" fill-opacity="0.01"/>
<mask id="mask0" mask-type="alpha" maskUnits="userSpaceOnUse" x="4" y="1" width="21" height="26">
<path fill-rule="evenodd" clip-rule="evenodd" d="M7.83334 1.16675H20.6667C21.5949 1.16675 22.4852 1.5355 23.1416 2.19187C23.7979 2.84825 24.1667 3.73849 24.1667 4.66675V25.4334C24.1659 25.9354 23.8726 26.3909 23.4158 26.5992C22.9591 26.8075 22.4229 26.7303 22.0433 26.4018L18.9167 23.7184L15.6617 26.5067C15.2243 26.8832 14.5894 26.9214 14.11 26.6001L9.67668 23.6367L6.45668 26.4018C6.07716 26.7303 5.54091 26.8075 5.08418 26.5992C4.62744 26.3909 4.33408 25.9354 4.33334 25.4334V4.66675C4.33334 2.73375 5.90035 1.16675 7.83334 1.16675ZM19.7567 21.3501L21.8333 23.1351V4.66675C21.8333 4.02242 21.311 3.50008 20.6667 3.50008H7.83334C7.18901 3.50008 6.66668 4.02242 6.66668 4.66675V23.1467L8.75501 21.3384C9.19397 20.9658 9.82622 20.9278 10.3067 21.2451L14.74 24.2084L18.0767 21.3501C18.5625 20.9424 19.2709 20.9424 19.7567 21.3501ZM17.1667 8.16675H9.00001C8.35568 8.16675 7.83334 7.64441 7.83334 7.00008C7.83334 6.35575 8.35568 5.83342 9.00001 5.83342H17.1667C17.811 5.83342 18.3333 6.35575 18.3333 7.00008C18.3333 7.64441 17.811 8.16675 17.1667 8.16675ZM9.00001 12.8334H13.6667C14.311 12.8334 14.8333 12.3111 14.8333 11.6667C14.8333 11.0224 14.311 10.5001 13.6667 10.5001H9.00001C8.35568 10.5001 7.83334 11.0224 7.83334 11.6667C7.83334 12.3111 8.35568 12.8334 9.00001 12.8334ZM7.83334 16.3334C7.83334 15.6891 8.35568 15.1667 9.00001 15.1667H18.3333C18.9777 15.1667 19.5 15.6891 19.5 16.3334C19.5 16.9777 18.9777 17.5001 18.3333 17.5001H9.00001C8.35568 17.5001 7.83334 16.9777 7.83334 16.3334Z" fill="white"/>
</mask>
<g mask="url(#mask0)">
<rect x="0.25" width="28" height="28" fill="#2F4CDD"/>
</g>
</svg>
