<svg width="25" height="20" viewBox="0 0 25 20" fill="none" xmlns="http://www.w3.org/2000/svg">
<mask id="mask0" mask-type="alpha" maskUnits="userSpaceOnUse" x="5" y="1" width="15" height="18">
<path fill-rule="evenodd" clip-rule="evenodd" d="M12.23 1.17681L19.1 4.90479C19.4876 5.10019 19.7039 5.45864 19.6571 5.82775C19.6102 6.19685 19.3084 6.51174 18.88 6.63855L12.36 8.74673V15.519C12.36 15.9685 11.9123 16.3329 11.36 16.3329C10.8077 16.3329 10.36 15.9685 10.36 15.519V1.99078C10.3584 1.62913 10.6023 1.29634 10.9941 1.1258C11.3859 0.955261 11.8614 0.974885 12.23 1.17681ZM12.36 3.20359V6.99669L16.73 5.57224L12.36 3.20359ZM8.58746 14.8099C8.51223 15.0197 8.33658 15.196 8.10001 15.2992C7.50001 15.5922 7.39001 15.8364 7.39001 15.9259C7.39001 16.0155 7.51001 16.3166 8.31001 16.6422C9.27698 16.9969 10.3298 17.1694 11.39 17.1469C12.4534 17.1684 13.5092 16.996 14.48 16.6422C15.28 16.3166 15.39 15.9992 15.39 15.9259C15.39 15.8527 15.31 15.6004 14.66 15.2992C14.4269 15.1932 14.2555 15.0156 14.1841 14.8062C14.1128 14.5967 14.1473 14.3727 14.28 14.184C14.412 13.9957 14.6308 13.8579 14.888 13.8014C15.1452 13.7448 15.4195 13.7742 15.65 13.8829C16.6444 14.2546 17.3112 15.0376 17.39 15.9259C17.2834 16.9004 16.5089 17.742 15.39 18.0992C14.1359 18.5661 12.7688 18.797 11.39 18.7748C10.0112 18.7973 8.64397 18.5664 7.39001 18.0992C6.27256 17.7404 5.49887 16.8997 5.39001 15.9259C5.47076 15.0358 6.14178 14.2524 7.14001 13.8829C7.61799 13.662 8.22541 13.7965 8.50001 14.184C8.63118 14.3747 8.66269 14.6002 8.58746 14.8099Z" fill="white"/>
</mask>
<g mask="url(#mask0)">
<rect x="0.5" y="0.126709" width="24" height="19.5353" fill="black"/>
</g>
</svg>
