<svg width="21" height="22" viewBox="0 0 21 22" fill="none" xmlns="http://www.w3.org/2000/svg">
<path d="M15.9536 21.25C16.5501 21.2493 17.1221 21.0121 17.5439 20.5903C17.9657 20.1685 18.203 19.5965 18.2036 19V15.9648C18.2036 15.7659 18.1246 15.5751 17.9839 15.4345C17.8433 15.2938 17.6525 15.2148 17.4536 15.2148C17.2547 15.2148 17.0639 15.2938 16.9233 15.4345C16.7826 15.5751 16.7036 15.7659 16.7036 15.9648V19C16.7034 19.1989 16.6244 19.3895 16.4837 19.5301C16.3431 19.6707 16.1525 19.7498 15.9536 19.75H2.45361C2.25476 19.7498 2.06409 19.6707 1.92348 19.5301C1.78287 19.3895 1.70379 19.1989 1.70361 19V2.5C1.70379 2.30114 1.78287 2.11048 1.92348 1.96987C2.06409 1.82925 2.25476 1.75018 2.45361 1.75H15.9536C16.1525 1.75018 16.3431 1.82925 16.4837 1.96987C16.6244 2.11048 16.7034 2.30114 16.7036 2.5V4.813C16.7036 5.01191 16.7826 5.20268 16.9233 5.34333C17.0639 5.48398 17.2547 5.563 17.4536 5.563C17.6525 5.563 17.8433 5.48398 17.9839 5.34333C18.1246 5.20268 18.2036 5.01191 18.2036 4.813V2.5C18.203 1.90346 17.9657 1.33155 17.5439 0.909733C17.1221 0.487918 16.5501 0.250655 15.9536 0.25H2.45361C1.85708 0.250655 1.28516 0.487918 0.863347 0.909733C0.441532 1.33155 0.204268 1.90346 0.203613 2.5V19C0.204268 19.5965 0.441532 20.1685 0.863347 20.5903C1.28516 21.0121 1.85708 21.2493 2.45361 21.25H15.9536Z" fill="#969BA0"/>
<path d="M3.95361 13C3.7547 13 3.56394 13.079 3.42328 13.2197C3.28263 13.3603 3.20361 13.5511 3.20361 13.75C3.20361 13.9489 3.28263 14.1397 3.42328 14.2803C3.56394 14.421 3.7547 14.5 3.95361 14.5H6.95361C7.15253 14.5 7.34329 14.421 7.48394 14.2803C7.6246 14.1397 7.70361 13.9489 7.70361 13.75C7.70361 13.5511 7.6246 13.3603 7.48394 13.2197C7.34329 13.079 7.15253 13 6.95361 13H3.95361Z" fill="#969BA0"/>
<path d="M18.6584 6.67394C18.5178 6.53333 18.327 6.45435 18.1282 6.45435C17.9293 6.45435 17.7386 6.53333 17.5979 6.67394L10.1734 14.0985C10.1037 14.1681 10.0484 14.2508 10.0107 14.3418C9.97299 14.4328 9.9536 14.5303 9.95361 14.6288V15.9999H3.95361C3.7547 15.9999 3.56394 16.0789 3.42328 16.2196C3.28263 16.3602 3.20361 16.551 3.20361 16.7499C3.20361 16.9488 3.28263 17.1396 3.42328 17.2802C3.56394 17.4209 3.7547 17.4999 3.95361 17.4999H12.8251C13.024 17.4998 13.2147 17.4208 13.3553 17.2801L20.7803 9.85559C20.9209 9.71494 20.9999 9.52421 20.9999 9.32534C20.9999 9.12646 20.9209 8.93573 20.7803 8.79509L18.6584 6.67394ZM12.5146 15.9999H11.4536V14.9393L18.1282 8.26476L19.1891 9.32534L12.5146 15.9999Z" fill="#969BA0"/>
<path d="M9.95361 6.625C9.95361 5.95749 9.75567 5.30497 9.38482 4.74995C9.01397 4.19494 8.48687 3.76235 7.87017 3.50691C7.25347 3.25146 6.57487 3.18463 5.92018 3.31485C5.2655 3.44508 4.66413 3.76651 4.19213 4.23852C3.72013 4.71052 3.39869 5.31189 3.26846 5.96657C3.13824 6.62126 3.20508 7.29986 3.46052 7.91656C3.71597 8.53326 4.14855 9.06036 4.70357 9.43121C5.25858 9.80206 5.9111 10 6.57861 10C7.47342 9.99901 8.33128 9.64311 8.964 9.01039C9.59672 8.37767 9.95262 7.5198 9.95361 6.625V6.625ZM6.57861 8.5C6.20777 8.5 5.84526 8.39003 5.53692 8.18401C5.22858 7.97798 4.98825 7.68514 4.84634 7.34253C4.70443 6.99992 4.66729 6.62292 4.73964 6.25921C4.81199 5.89549 4.99057 5.5614 5.25279 5.29918C5.51501 5.03695 5.84911 4.85838 6.21282 4.78603C6.57653 4.71368 6.95353 4.75081 7.29615 4.89273C7.63876 5.03464 7.93159 5.27497 8.13762 5.58331C8.34365 5.89165 8.45361 6.25416 8.45361 6.625C8.4531 7.12212 8.25539 7.59874 7.90387 7.95026C7.55235 8.30178 7.07574 8.49949 6.57861 8.5Z" fill="#969BA0"/>
</svg>
