<svg width="25" height="25" viewBox="0 0 25 25" fill="none" xmlns="http://www.w3.org/2000/svg">
<path d="M7.26271 8.92694H15.5471C16.1976 8.92694 16.7268 8.39772 16.7268 7.74723V0.642578H6.08301V7.74723C6.08301 8.39772 6.61223 8.92694 7.26271 8.92694ZM13.7143 4.35822C13.7143 3.96991 14.0291 3.65509 14.4174 3.65509C14.8058 3.65509 15.1206 3.96991 15.1206 4.35822V6.61759C15.1206 7.00591 14.8058 7.32072 14.4174 7.32072C14.0291 7.32072 13.7143 7.00591 13.7143 6.61759V4.35822Z" fill="white"/>
<path d="M17.0534 14.8521H7.26271C6.61223 14.8521 6.08301 15.3812 6.08301 16.0317V24.6426H18.233V16.0317C18.2331 15.3812 17.7038 14.8521 17.0534 14.8521Z" fill="white"/>
<path d="M23.9522 5.3673L19.4335 0.848547C19.3016 0.716641 19.1228 0.642578 18.9363 0.642578H18.1332V7.74723C18.1332 9.17312 16.9732 10.3332 15.5473 10.3332H7.26286C5.83697 10.3332 4.67691 9.17312 4.67691 7.74723V0.642578H2.74411C1.31827 0.642578 0.158203 1.80264 0.158203 3.22853V22.0566C0.158203 23.4825 1.31827 24.6426 2.74411 24.6426H4.67691V16.0316C4.67691 14.6057 5.83697 13.4457 7.26286 13.4457H17.0535C18.4793 13.4457 19.6394 14.6057 19.6394 16.0316V24.6426H21.5722C22.9981 24.6426 24.1582 23.4825 24.1582 22.0566V5.86445C24.1582 5.67798 24.0841 5.49911 23.9522 5.3673Z" fill="white"/>
</svg>
