<svg width="24" height="20" viewBox="0 0 24 20" fill="none" xmlns="http://www.w3.org/2000/svg">
<rect width="24" height="19.5353" transform="translate(0 0.241089)" fill="white" fill-opacity="0.01"/>
<mask id="mask0" mask-type="alpha" maskUnits="userSpaceOnUse" x="2" y="1" width="20" height="18">
<path fill-rule="evenodd" clip-rule="evenodd" d="M19 4.31093H18V2.68299H20C20.5523 2.68299 21 2.31857 21 1.86902C21 1.41948 20.5523 1.05505 20 1.05505H5C3.34315 1.05505 2 2.14833 2 3.49696V18.1484C2 18.598 2.44772 18.9624 3 18.9624C3.55228 18.9624 4 18.598 4 18.1484V3.49696C4 3.04742 4.44772 2.68299 5 2.68299H10V4.31093H9C7.34315 4.31093 6 5.40421 6 6.75284V10.8227C6 12.1713 7.34315 13.2646 9 13.2646H19C20.6569 13.2646 22 12.1713 22 10.8227V6.75284C22 5.40421 20.6569 4.31093 19 4.31093ZM12 3.033V2.68299H16V4.31093H12V3.033ZM20 10.8227C20 11.2722 19.5523 11.6367 19 11.6367H9C8.44772 11.6367 8 11.2722 8 10.8227V6.75284C8 6.3033 8.44772 5.93887 9 5.93887H19C19.5523 5.93887 20 6.3033 20 6.75284V10.8227Z" fill="white"/>
</mask>
<g mask="url(#mask0)">
<rect y="0.241089" width="24" height="19.5353" fill="black"/>
</g>
</svg>
