<svg width="12" height="16" viewBox="0 0 12 16" fill="none" xmlns="http://www.w3.org/2000/svg">
<path d="M1.40914 6.68177H10.6363C10.8148 6.68177 10.9693 6.61659 11.0997 6.48612C11.23 6.35569 11.2955 6.20124 11.2955 6.02273C11.2955 5.84422 11.2301 5.68984 11.0997 5.55923L6.48612 0.945643C6.35577 0.815359 6.20135 0.75 6.02273 0.75C5.84411 0.75 5.6897 0.815359 5.55923 0.945643L0.945643 5.55923C0.815178 5.6897 0.75 5.84422 0.75 6.02273C0.75 6.20121 0.815178 6.35569 0.945643 6.48612C1.07625 6.61659 1.23067 6.68177 1.40914 6.68177Z" fill="#3E4954"/>
<path d="M10.6363 9.31836H1.40914C1.23052 9.31836 1.07611 9.38357 0.945643 9.51389C0.815178 9.64436 0.75 9.79877 0.75 9.97728C0.75 10.1558 0.815178 10.3103 0.945643 10.4407L5.55923 15.0542C5.68984 15.1847 5.84426 15.25 6.02273 15.25C6.20121 15.25 6.35577 15.1847 6.48612 15.0542L11.0997 10.4407C11.23 10.3103 11.2955 10.1558 11.2955 9.97725C11.2955 9.79877 11.2301 9.64436 11.0997 9.51386C10.9694 9.38343 10.8148 9.31836 10.6363 9.31836Z" fill="#D3D6E4"/>
</svg>
