<svg width="28" height="28" viewBox="0 0 28 28" fill="none" xmlns="http://www.w3.org/2000/svg">
<path d="M14.0001 9.625C13.1348 9.625 12.2889 9.88159 11.5695 10.3623C10.85 10.843 10.2893 11.5263 9.95812 12.3258C9.62699 13.1252 9.54035 14.0048 9.70916 14.8535C9.87797 15.7022 10.2946 16.4817 10.9065 17.0936C11.5184 17.7054 12.2979 18.1221 13.1466 18.2909C13.9952 18.4597 14.8749 18.3731 15.6743 18.042C16.4737 17.7108 17.157 17.1501 17.6378 16.4306C18.1185 15.7111 18.3751 14.8653 18.3751 14C18.3737 12.8401 17.9123 11.7281 17.0922 10.9079C16.272 10.0877 15.16 9.62637 14.0001 9.625ZM14.0001 16.625C13.4809 16.625 12.9734 16.471 12.5417 16.1826C12.11 15.8942 11.7736 15.4842 11.5749 15.0045C11.3762 14.5249 11.3242 13.9971 11.4255 13.4879C11.5268 12.9787 11.7768 12.511 12.1439 12.1438C12.511 11.7767 12.9788 11.5267 13.488 11.4254C13.9972 11.3241 14.525 11.3761 15.0046 11.5748C15.4843 11.7735 15.8943 12.1099 16.1827 12.5416C16.4711 12.9733 16.6251 13.4808 16.6251 14C16.6243 14.6959 16.3475 15.3632 15.8554 15.8553C15.3633 16.3474 14.696 16.6242 14.0001 16.625Z" fill="#FF6D4D"/>
<path d="M5.48928 8.55995C5.05902 8.3983 4.58276 8.41036 4.16123 8.59358C3.73971 8.7768 3.40599 9.11681 3.23067 9.54168C3.05535 9.96654 3.05217 10.443 3.22182 10.8701C3.39147 11.2973 3.72063 11.6417 4.13968 11.8305C4.56598 12.0108 4.92971 12.3128 5.18543 12.6986C5.44115 13.0844 5.57753 13.537 5.57753 13.9999C5.57753 14.4627 5.44115 14.9153 5.18543 15.3012C4.92971 15.687 4.56598 15.9889 4.13968 16.1692C3.72053 16.358 3.39129 16.7025 3.22162 17.1298C3.05195 17.557 3.05516 18.0335 3.23057 18.4585C3.40599 18.8834 3.73984 19.2234 4.1615 19.4065C4.58315 19.5897 5.05952 19.6016 5.4898 19.4398C5.91918 19.2649 6.39061 19.2206 6.84503 19.3125C7.29946 19.4043 7.71668 19.6283 8.04443 19.9562C8.37217 20.2841 8.59588 20.7014 8.68751 21.1559C8.77915 21.6103 8.73464 22.0817 8.55957 22.511C8.39268 22.9424 8.40304 23.4223 8.58839 23.8461C8.77373 24.2699 9.11905 24.6033 9.5491 24.7737C9.76447 24.8628 9.99528 24.9087 10.2284 24.9087C10.5689 24.9111 10.9025 24.8129 11.1875 24.6265C11.4724 24.44 11.696 24.1736 11.8301 23.8606C12.0105 23.4343 12.3124 23.0706 12.6982 22.8149C13.084 22.5592 13.5366 22.4228 13.9995 22.4228C14.4624 22.4228 14.915 22.5592 15.3008 22.8149C15.6866 23.0706 15.9885 23.4343 16.1688 23.8606C16.3576 24.2798 16.7021 24.609 17.1294 24.7787C17.5566 24.9484 18.0331 24.9452 18.4581 24.7697C18.883 24.5943 19.223 24.2605 19.4062 23.8388C19.5893 23.4172 19.6012 22.9408 19.4394 22.5105C19.2645 22.0811 19.2203 21.6097 19.3121 21.1553C19.404 20.7008 19.6279 20.2836 19.9558 19.9559C20.2837 19.6281 20.701 19.4044 21.1555 19.3128C21.61 19.2212 22.0814 19.2657 22.5107 19.4407C22.9394 19.6072 23.4164 19.5983 23.8385 19.4159C24.2607 19.2335 24.5942 18.8924 24.7669 18.4662L23.9646 18.1176L23.1683 17.8194C22.4205 17.5138 21.599 17.4362 20.8072 17.5963C20.0153 17.7564 19.2885 18.1471 18.7181 18.7191C18.1482 19.2937 17.7566 20.0209 17.5905 20.813C17.4245 21.6051 17.4911 22.4283 17.7824 23.1834C17.4703 22.4382 16.9446 21.802 16.2714 21.3552C15.5983 20.9083 14.808 20.6707 14.0001 20.6724C13.1904 20.6749 12.3987 20.912 11.721 21.3551C11.0433 21.7981 10.5084 22.4281 10.1813 23.1688C10.4866 22.4209 10.5641 21.5995 10.404 20.8077C10.2439 20.0159 9.85341 19.2891 9.28153 18.7186C8.70691 18.1487 7.97975 17.7572 7.18766 17.5911C6.39558 17.4251 5.57238 17.4917 4.81728 17.7829C5.56247 17.4707 6.19854 16.9448 6.64531 16.2716C7.09207 15.5984 7.32953 14.808 7.32774 14.0001C7.32523 13.1904 7.08811 12.3988 6.64506 11.721C6.20201 11.0433 5.57204 10.5085 4.83137 10.1813C5.57921 10.4868 6.40068 10.5644 7.19249 10.4043C7.98431 10.2442 8.71112 9.8536 9.28153 9.28156C9.8515 8.70699 10.2431 7.97982 10.4091 7.18772C10.5752 6.39561 10.5085 5.5724 10.2173 4.81731C10.5295 5.5625 11.0553 6.19857 11.7285 6.64534C12.4017 7.0921 13.1921 7.32956 14.0001 7.32777C14.8098 7.32526 15.6014 7.08814 16.2791 6.64509C16.9569 6.20204 17.4917 5.57207 17.8188 4.8314C17.5135 5.57927 17.436 6.40069 17.5961 7.19247C17.7562 7.98424 18.1467 8.71104 18.7186 9.28156C19.2933 9.85124 20.0205 10.2426 20.8125 10.4087C21.6046 10.5747 22.4277 10.5082 23.1828 10.2173C22.4412 10.5288 21.8077 11.0518 21.3613 11.7209C20.9149 12.39 20.6753 13.1758 20.6724 13.9802C20.6695 14.7845 20.9034 15.572 21.345 16.2443C21.7865 16.9167 22.4162 17.4442 23.1555 17.7611C23.1579 17.7683 23.1579 17.7761 23.1555 17.7833L23.9643 18.117L24.7683 18.4618L24.7731 18.4507C24.9517 18.0269 24.956 17.5499 24.7852 17.1229C24.6144 16.696 24.2821 16.3536 23.8604 16.1701C23.4341 15.9898 23.0704 15.6878 22.8147 15.302C22.559 14.9162 22.4226 14.4636 22.4226 14.0007C22.4226 13.5379 22.559 13.0853 22.8147 12.6994C23.0704 12.3136 23.4341 12.0117 23.8604 11.8314C24.2796 11.6426 24.6088 11.2981 24.7785 10.8708C24.9482 10.4436 24.9449 9.96708 24.7695 9.54215C24.5941 9.11722 24.2603 8.77721 23.8386 8.59406C23.417 8.4109 22.9406 8.39899 22.5103 8.56082C22.0809 8.73569 21.6095 8.77996 21.1551 8.68811C20.7006 8.59625 20.2834 8.37235 19.9557 8.04444C19.6279 7.71654 19.4042 7.29921 19.3126 6.84474C19.221 6.39027 19.2655 5.91886 19.4405 5.48957C19.6023 5.05931 19.5903 4.58298 19.4072 4.16138C19.224 3.73978 18.884 3.40598 18.4591 3.2306C18.0342 3.05523 17.5577 3.05204 17.1305 3.22171C16.7033 3.39138 16.3589 3.7206 16.1701 4.13971C15.9897 4.56601 15.6878 4.92974 15.302 5.18546C14.9162 5.44118 14.4636 5.57756 14.0007 5.57756C13.5378 5.57756 13.0852 5.44118 12.6994 5.18546C12.3136 4.92974 12.0117 4.56601 11.8314 4.13971C11.6425 3.72056 11.2981 3.39132 10.8708 3.22165C10.4436 3.05198 9.96705 3.05519 9.54212 3.2306C9.11719 3.40602 8.77718 3.73988 8.59403 4.16153C8.41087 4.58318 8.39896 5.05955 8.56079 5.48983C8.73566 5.91921 8.77993 6.39064 8.68808 6.84506C8.59622 7.29949 8.37232 7.71671 8.04441 8.04446C7.71651 8.3722 7.29918 8.59591 6.84471 8.68754C6.39024 8.77918 5.91883 8.73467 5.48954 8.5596L5.48928 8.55995Z" fill="#FF6D4D"/>
</svg>
