<svg width="12" height="15" viewBox="0 0 12 15" fill="none" xmlns="http://www.w3.org/2000/svg">
<path d="M1.40914 5.93177H10.6363C10.8148 5.93177 10.9693 5.86659 11.0997 5.73612C11.23 5.60569 11.2955 5.45124 11.2955 5.27273C11.2955 5.09422 11.2301 4.93984 11.0997 4.80923L6.48612 0.195643C6.35577 0.0653586 6.20135 0 6.02273 0C5.84411 0 5.6897 0.0653586 5.55923 0.195643L0.945643 4.80923C0.815178 4.9397 0.75 5.09422 0.75 5.27273C0.75 5.45121 0.815178 5.60569 0.945643 5.73612C1.07625 5.86659 1.23067 5.93177 1.40914 5.93177Z" fill="#D3D6E4"/>
<path d="M10.6363 8.56836H1.40914C1.23052 8.56836 1.07611 8.63357 0.945643 8.76389C0.815178 8.89436 0.75 9.04877 0.75 9.22728C0.75 9.40579 0.815178 9.56032 0.945643 9.69071L5.55923 14.3042C5.68984 14.4347 5.84426 14.5 6.02273 14.5C6.20121 14.5 6.35577 14.4347 6.48612 14.3042L11.0997 9.69067C11.23 9.56032 11.2955 9.40579 11.2955 9.22725C11.2955 9.04877 11.2301 8.89436 11.0997 8.76386C10.9694 8.63343 10.8148 8.56836 10.6363 8.56836Z" fill="#D3D6E4"/>
</svg>
