<svg width="29" height="28" viewBox="0 0 29 28" fill="none" xmlns="http://www.w3.org/2000/svg">
<g clip-path="url(#clip0)">
<path d="M12.9165 27.9558C13.0069 27.9857 13.0995 28.0001 13.1911 28.0001C13.4628 28.0001 13.7255 27.8733 13.8937 27.6467L25.3455 12.2249C25.5426 11.9595 25.5732 11.6055 25.4247 11.3101C25.2761 11.0147 24.9737 10.8283 24.643 10.8283H16.8554V0.875079C16.8554 0.495438 16.6106 0.15911 16.2494 0.0424071C15.8881 -0.0742413 15.4929 0.0552587 15.2707 0.363204L4.14734 15.785C3.95517 16.0515 3.92842 16.4031 4.07805 16.6955C4.22767 16.9879 4.52851 17.1718 4.85702 17.1718H12.3163V27.1251C12.3163 27.5025 12.5582 27.8373 12.9165 27.9558ZM6.56699 15.4219L15.1054 3.58397V11.7033C15.1054 12.1865 15.4972 12.5783 15.9804 12.5783H22.9033L14.0663 24.479V16.2969C14.0663 15.8137 13.6745 15.4219 13.1913 15.4219H6.56699Z" fill="#2F4CDD"/>
</g>
<defs>
<clipPath id="clip0">
<rect width="28" height="28" fill="white" transform="translate(0.75)"/>
</clipPath>
</defs>
</svg>
