<svg width="25" height="25" viewBox="0 0 25 25" fill="none" xmlns="http://www.w3.org/2000/svg">
<g clip-path="url(#clip0)">
<path d="M22.9605 8.13172C22.9632 9.11559 22.7707 10.0902 22.3941 10.9992C22.0175 11.9081 21.4644 12.7334 20.7668 13.4271L11.3108 22.8831C10.304 23.8886 8.93909 24.4531 7.51615 24.4527C6.0932 24.4522 4.72867 23.8867 3.7225 22.8806C2.71633 21.8744 2.15086 20.5099 2.15039 19.0869C2.14992 17.664 2.71449 16.2991 3.72 15.2922L13.2938 5.71875C13.5948 5.41542 13.9527 5.17451 14.3471 5.00985C14.7414 4.84519 15.1644 4.76 15.5917 4.75919C16.0191 4.75838 16.4424 4.84195 16.8373 5.00511C17.2323 5.16828 17.5912 5.40782 17.8933 5.71C18.1955 6.01218 18.435 6.37105 18.5982 6.76602C18.7613 7.16099 18.8449 7.58429 18.8441 8.01163C18.8433 8.43897 18.7581 8.86194 18.5934 9.25628C18.4287 9.65062 18.1878 10.0086 17.8845 10.3096L10.6308 17.5631C10.5604 17.6334 10.4651 17.6729 10.3656 17.6729C10.2662 17.6729 10.1708 17.6334 10.1005 17.5631L9.03994 16.5026C8.96962 16.4323 8.93012 16.3369 8.93012 16.2374C8.93012 16.138 8.96962 16.0426 9.03994 15.9723L16.2937 8.71875C16.3862 8.62622 16.4596 8.51638 16.5097 8.39548C16.5598 8.27459 16.5855 8.14501 16.5855 8.01416C16.5855 7.8833 16.5598 7.75373 16.5097 7.63284C16.4596 7.51194 16.3862 7.4021 16.2937 7.30957C16.1035 7.129 15.8513 7.02832 15.5891 7.02832C15.3268 7.02832 15.0746 7.129 14.8845 7.30957L5.31071 16.8831C4.72602 17.4678 4.39755 18.2608 4.39756 19.0877C4.39757 19.9146 4.72606 20.7076 5.31077 21.2923C5.89548 21.877 6.68851 22.2055 7.5154 22.2054C8.34229 22.2054 9.13531 21.8769 9.72 21.2922L19.1761 11.8365C20.1587 10.8539 20.7106 9.52131 20.7106 8.13178C20.7106 6.74226 20.1586 5.40965 19.1761 4.42712C18.1936 3.44458 16.8609 2.8926 15.4714 2.8926C14.0819 2.8926 12.7493 3.44459 11.7668 4.42713L7.63076 8.56312C7.56044 8.63343 7.46506 8.67294 7.36562 8.67294C7.26617 8.67294 7.1708 8.63343 7.10047 8.56312L6.03994 7.50258C5.96962 7.43226 5.93012 7.33689 5.93012 7.23744C5.93012 7.138 5.96962 7.04262 6.03994 6.9723L10.1759 2.83646C11.2233 1.78915 12.5577 1.07592 14.0104 0.786969C15.4631 0.498012 16.9688 0.646303 18.3372 1.21309C19.7057 1.77987 20.8753 2.7397 21.6982 3.9712C22.5212 5.2027 22.9604 6.65057 22.9605 8.13172Z" fill="white"/>
</g>
<defs>
<clipPath id="clip0">
<rect width="24" height="24" fill="white" transform="translate(0.555664 0.642578)"/>
</clipPath>
</defs>
</svg>
