<svg width="25" height="25" viewBox="0 0 25 25" fill="none" xmlns="http://www.w3.org/2000/svg">
<g clip-path="url(#clip0)">
<path d="M22.9889 8.24305C22.9915 9.22692 22.799 10.2015 22.4224 11.1105C22.0459 12.0195 21.4928 12.8447 20.7951 13.5385L11.3391 22.9944C10.3323 23.9999 8.96741 24.5645 7.54447 24.564C6.12152 24.5635 4.757 23.9981 3.75082 22.9919C2.74465 21.9857 2.17918 20.6212 2.17871 19.1982C2.17824 17.7753 2.74281 16.4104 3.74832 15.4036L13.3221 5.83008C13.6231 5.52675 13.981 5.28584 14.3754 5.12118C14.7697 4.95651 15.1927 4.87133 15.62 4.87052C16.0474 4.86971 16.4707 4.95328 16.8656 5.11644C17.2606 5.27961 17.6195 5.51915 17.9216 5.82133C18.2238 6.12351 18.4633 6.48238 18.6265 6.87735C18.7897 7.27232 18.8732 7.69561 18.8724 8.12295C18.8716 8.55029 18.7864 8.97327 18.6217 9.36761C18.457 9.76194 18.2161 10.1199 17.9128 10.4209L10.6591 17.6744C10.5888 17.7448 10.4934 17.7843 10.3939 17.7843C10.2945 17.7843 10.1991 17.7448 10.1288 17.6744L9.06826 16.6139C8.99794 16.5436 8.95844 16.4482 8.95844 16.3488C8.95844 16.2493 8.99794 16.1539 9.06826 16.0836L16.322 8.83008C16.4145 8.73755 16.4879 8.6277 16.538 8.50681C16.5881 8.38592 16.6139 8.25634 16.6139 8.12549C16.6139 7.99463 16.5881 7.86506 16.538 7.74417C16.4879 7.62327 16.4145 7.51343 16.322 7.4209C16.1318 7.24032 15.8796 7.13965 15.6174 7.13965C15.3552 7.13965 15.1029 7.24032 14.9128 7.4209L5.33903 16.9944C4.75434 17.5791 4.42587 18.3721 4.42588 19.199C4.42589 20.0259 4.75438 20.8189 5.33909 21.4036C5.9238 21.9883 6.71683 22.3168 7.54372 22.3168C8.37061 22.3168 9.16363 21.9883 9.74832 21.4036L19.2044 11.9478C20.187 10.9652 20.739 9.63263 20.7389 8.24311C20.7389 6.85359 20.187 5.52098 19.2044 4.53844C18.2219 3.55591 16.8893 3.00392 15.4997 3.00393C14.1102 3.00393 12.7776 3.55592 11.7951 4.53846L7.65908 8.67445C7.58876 8.74476 7.49338 8.78426 7.39394 8.78426C7.29449 8.78426 7.19912 8.74476 7.1288 8.67445L6.06826 7.61391C5.99794 7.54359 5.95844 7.44822 5.95844 7.34877C5.95844 7.24932 5.99794 7.15395 6.06826 7.08363L10.2042 2.94779C11.2516 1.90048 12.586 1.18725 14.0387 0.898297C15.4914 0.609341 16.9971 0.757631 18.3656 1.32442C19.734 1.8912 20.9036 2.85103 21.7265 4.08253C22.5495 5.31403 22.9888 6.7619 22.9889 8.24305Z" fill="#604FB1"/>
</g>
<defs>
<clipPath id="clip0">
<rect width="24" height="24" fill="white" transform="translate(0.583984 0.753906)"/>
</clipPath>
</defs>
</svg>
