<svg width="24" height="25" viewBox="0 0 24 25" fill="none" xmlns="http://www.w3.org/2000/svg">
<g clip-path="url(#clip0)">
<path d="M22.4051 8.02332C22.4078 9.00719 22.2152 9.98182 21.8387 10.8908C21.4621 11.7997 20.909 12.625 20.2114 13.3187L10.7554 22.7747C9.74857 23.7802 8.38367 24.3447 6.96073 24.3443C5.53778 24.3438 4.17325 23.7783 3.16708 22.7722C2.16091 21.766 1.59544 20.4015 1.59497 18.9785C1.5945 17.5556 2.15907 16.1907 3.16458 15.1838L12.7383 5.61035C13.0394 5.30702 13.3973 5.06612 13.7916 4.90145C14.186 4.73679 14.609 4.65161 15.0363 4.65079C15.4636 4.64998 15.8869 4.73355 16.2819 4.89672C16.6769 5.05988 17.0357 5.29942 17.3379 5.6016C17.6401 5.90378 17.8796 6.26265 18.0428 6.65762C18.2059 7.05259 18.2895 7.47589 18.2887 7.90323C18.2878 8.33057 18.2026 8.75354 18.038 9.14788C17.8733 9.54222 17.6324 9.90016 17.329 10.2012L10.0753 17.4547C10.005 17.525 9.90965 17.5645 9.8102 17.5645C9.71075 17.5645 9.61538 17.525 9.54506 17.4547L8.48452 16.3942C8.4142 16.3239 8.3747 16.2285 8.3747 16.129C8.3747 16.0296 8.4142 15.9342 8.48452 15.8639L15.7383 8.61035C15.8308 8.51782 15.9042 8.40798 15.9543 8.28708C16.0043 8.16619 16.0301 8.03662 16.0301 7.90576C16.0301 7.77491 16.0043 7.64533 15.9543 7.52444C15.9042 7.40355 15.8308 7.2937 15.7383 7.20117C15.5481 7.0206 15.2959 6.91992 15.0337 6.91992C14.7714 6.91992 14.5192 7.0206 14.329 7.20117L4.75529 16.7747C4.1706 17.3594 3.84213 18.1524 3.84214 18.9793C3.84215 19.8062 4.17064 20.5992 4.75535 21.1839C5.34006 21.7686 6.13309 22.0971 6.95998 22.097C7.78687 22.097 8.57989 21.7685 9.16458 21.1838L18.6207 11.7281C19.6032 10.7455 20.1552 9.41291 20.1552 8.02339C20.1552 6.63386 19.6032 5.30126 18.6207 4.31872C17.6381 3.33618 16.3055 2.7842 14.916 2.7842C13.5265 2.78421 12.1939 3.33619 11.2113 4.31874L7.07534 8.45472C7.00502 8.52504 6.90964 8.56454 6.8102 8.56454C6.71075 8.56454 6.61538 8.52504 6.54505 8.45472L5.48452 7.39419C5.4142 7.32386 5.3747 7.22849 5.3747 7.12904C5.3747 7.0296 5.4142 6.93422 5.48452 6.8639L9.62051 2.72806C10.6679 1.68075 12.0023 0.967526 13.455 0.67857C14.9076 0.389614 16.4134 0.537904 17.7818 1.10469C19.1502 1.67148 20.3199 2.6313 21.1428 3.8628C21.9657 5.0943 22.405 6.54217 22.4051 8.02332Z" fill="#604FB1"/>
</g>
<defs>
<clipPath id="clip0">
<rect width="24" height="24" fill="white" transform="translate(0 0.534302)"/>
</clipPath>
</defs>
</svg>
