<svg width="25" height="25" viewBox="0 0 25 25" fill="none" xmlns="http://www.w3.org/2000/svg">
<g clip-path="url(#clip0)">
<path d="M22.9044 8.2693C22.907 9.25316 22.7145 10.2278 22.338 11.1367C21.9614 12.0457 21.4083 12.871 20.7106 13.5647L11.2547 23.0206C10.2478 24.0261 8.88294 24.5907 7.45999 24.5902C6.03705 24.5898 4.67252 24.0243 3.66635 23.0181C2.66018 22.012 2.09471 20.6474 2.09424 19.2245C2.09377 17.8015 2.65834 16.4366 3.66385 15.4298L13.2376 5.85632C13.5386 5.55299 13.8966 5.31209 14.2909 5.14742C14.6853 4.98276 15.1082 4.89758 15.5356 4.89676C15.9629 4.89595 16.3862 4.97952 16.7812 5.14269C17.1761 5.30585 17.535 5.54539 17.8372 5.84757C18.1393 6.14975 18.3789 6.50862 18.542 6.90359C18.7052 7.29856 18.7887 7.72186 18.7879 8.1492C18.7871 8.57654 18.7019 8.99951 18.5372 9.39385C18.3726 9.78819 18.1316 10.1461 17.8283 10.4471L10.5746 17.7007C10.5043 17.771 10.4089 17.8105 10.3095 17.8105C10.21 17.8105 10.1146 17.771 10.0443 17.7007L8.98379 16.6402C8.91347 16.5698 8.87397 16.4745 8.87397 16.375C8.87397 16.2756 8.91347 16.1802 8.98379 16.1099L16.2375 8.85632C16.3301 8.76379 16.4035 8.65395 16.4535 8.53305C16.5036 8.41216 16.5294 8.28259 16.5294 8.15173C16.5294 8.02088 16.5036 7.8913 16.4535 7.77041C16.4035 7.64952 16.3301 7.53967 16.2375 7.44714C16.0474 7.26657 15.7951 7.16589 15.5329 7.16589C15.2707 7.16589 15.0185 7.26657 14.8283 7.44714L5.25456 17.0206C4.66987 17.6053 4.3414 18.3984 4.34141 19.2253C4.34142 20.0522 4.66991 20.8452 5.25462 21.4299C5.83932 22.0146 6.63235 22.343 7.45924 22.343C8.28614 22.343 9.07915 22.0145 9.66385 21.4298L19.12 11.974C20.1025 10.9915 20.6545 9.65888 20.6545 8.26936C20.6545 6.87984 20.1025 5.54723 19.1199 4.56469C18.1374 3.58215 16.8048 3.03017 15.4153 3.03017C14.0257 3.03018 12.6931 3.58217 11.7106 4.56471L7.57461 8.7007C7.50429 8.77101 7.40891 8.81051 7.30947 8.81051C7.21002 8.81051 7.11465 8.77101 7.04432 8.7007L5.98378 7.64016C5.91347 7.56983 5.87397 7.47446 5.87397 7.37501C5.87397 7.27557 5.91347 7.18019 5.98378 7.10987L10.1198 2.97403C11.1671 1.92672 12.5015 1.2135 13.9542 0.924542C15.4069 0.635586 16.9127 0.783876 18.2811 1.35066C19.6495 1.91745 20.8191 2.87727 21.6421 4.10877C22.465 5.34027 22.9043 6.78814 22.9044 8.2693Z" fill="#27AE60"/>
</g>
<defs>
<clipPath id="clip0">
<rect width="24" height="24" fill="white" transform="translate(0.499268 0.780273)"/>
</clipPath>
</defs>
</svg>
