<svg width="21" height="25" viewBox="0 0 21 25" fill="none" xmlns="http://www.w3.org/2000/svg">
<path d="M20.9044 8.26514C20.907 9.24901 20.7145 10.2236 20.338 11.1326C19.9614 12.0416 19.4083 12.8668 18.7106 13.5606L9.25467 23.0165C8.24784 24.022 6.88294 24.5866 5.45999 24.5861C4.03705 24.5856 2.67252 24.0202 1.66635 23.014C0.660178 22.0078 0.0947079 20.6433 0.0942386 19.2203C0.0937693 17.7974 0.658339 16.4325 1.66385 15.4257L11.2376 5.85217C11.5386 5.54884 11.8966 5.30794 12.2909 5.14327C12.6853 4.97861 13.1082 4.89343 13.5356 4.89261C13.9629 4.8918 14.3862 4.97537 14.7812 5.13854C15.1761 5.3017 15.535 5.54124 15.8372 5.84342C16.1393 6.1456 16.3789 6.50447 16.542 6.89944C16.7052 7.29441 16.7887 7.71771 16.7879 8.14505C16.7871 8.57239 16.7019 8.99536 16.5372 9.3897C16.3726 9.78404 16.1316 10.142 15.8283 10.443L8.57461 17.6965C8.50429 17.7669 8.40891 17.8064 8.30947 17.8064C8.21002 17.8064 8.11465 17.7669 8.04432 17.6965L6.98379 16.636C6.91347 16.5657 6.87397 16.4703 6.87397 16.3709C6.87397 16.2714 6.91347 16.176 6.98379 16.1057L14.2375 8.85217C14.3301 8.75964 14.4035 8.6498 14.4535 8.5289C14.5036 8.40801 14.5294 8.27844 14.5294 8.14758C14.5294 8.01673 14.5036 7.88715 14.4535 7.76626C14.4035 7.64537 14.3301 7.53552 14.2375 7.44299C14.0474 7.26242 13.7951 7.16174 13.5329 7.16174C13.2707 7.16174 13.0185 7.26242 12.8283 7.44299L3.25456 17.0165C2.66987 17.6012 2.3414 18.3942 2.34141 19.2211C2.34142 20.048 2.66991 20.841 3.25462 21.4257C3.83932 22.0104 4.63235 22.3389 5.45924 22.3389C6.28614 22.3389 7.07915 22.0104 7.66385 21.4257L17.12 11.9699C18.1025 10.9873 18.6545 9.65473 18.6545 8.26521C18.6545 6.87569 18.1025 5.54308 17.1199 4.56054C16.1374 3.578 14.8048 3.02602 13.4153 3.02602C12.0257 3.02603 10.6931 3.57802 9.7106 4.56056L5.57461 8.69654C5.50429 8.76686 5.40891 8.80636 5.30947 8.80636C5.21002 8.80636 5.11465 8.76686 5.04432 8.69654L3.98378 7.63601C3.91347 7.56568 3.87397 7.47031 3.87397 7.37086C3.87397 7.27142 3.91347 7.17604 3.98378 7.10572L8.11977 2.96988C9.16713 1.92257 10.5015 1.20935 11.9542 0.920392C13.4069 0.631435 14.9127 0.779726 16.2811 1.34651C17.6495 1.9133 18.8191 2.87312 19.6421 4.10462C20.465 5.33612 20.9043 6.78399 20.9044 8.26514Z" fill="#EB5757"/>
</svg>
