<svg width="25" height="24" viewBox="0 0 25 24" fill="none" xmlns="http://www.w3.org/2000/svg">
<path d="M11.75 12C11.75 12.5523 12.1977 13 12.75 13C13.3023 13 13.75 12.5523 13.75 12C13.75 11.4477 13.3023 11 12.75 11C12.1977 11 11.75 11.4477 11.75 12Z" stroke="#3E4954" stroke-width="2" stroke-linecap="round" stroke-linejoin="round"/>
<path d="M18.75 12C18.75 12.5523 19.1977 13 19.75 13C20.3023 13 20.75 12.5523 20.75 12C20.75 11.4477 20.3023 11 19.75 11C19.1977 11 18.75 11.4477 18.75 12Z" stroke="#3E4954" stroke-width="2" stroke-linecap="round" stroke-linejoin="round"/>
<path d="M4.75 12C4.75 12.5523 5.19772 13 5.75 13C6.30228 13 6.75 12.5523 6.75 12C6.75 11.4477 6.30228 11 5.75 11C5.19772 11 4.75 11.4477 4.75 12Z" stroke="#3E4954" stroke-width="2" stroke-linecap="round" stroke-linejoin="round"/>
</svg>
