<svg width="26" height="31" viewBox="0 0 26 31" fill="none" xmlns="http://www.w3.org/2000/svg">
<path d="M22.6633 9.81867H17.8419C17.3093 9.81867 16.8776 10.2984 16.8776 10.8901C16.8776 11.4819 17.3093 11.9616 17.8419 11.9616H22.6633C23.1959 11.9616 23.6277 12.4413 23.6277 13.033V26.9617C23.6277 27.5535 23.1959 28.0332 22.6633 28.0332H3.3775C2.84491 28.0332 2.41319 27.5535 2.41319 26.9617V13.033C2.41319 12.4412 2.84491 11.9615 3.3775 11.9615H8.19895C8.73153 11.9615 9.16326 11.4818 9.16326 10.8901C9.16326 10.2983 8.73153 9.8186 8.19895 9.8186H3.3775C1.7798 9.8186 0.484619 11.2577 0.484619 13.0329V26.9616C0.484619 28.7368 1.7798 30.1759 3.3775 30.1759H22.6633C24.261 30.1759 25.5562 28.7368 25.5562 26.9616V13.033C25.5562 11.2578 24.261 9.81867 22.6633 9.81867Z" fill="#919CA7"/>
<path d="M18.5235 5.84667L13.702 0.489506C13.3255 0.0712063 12.715 0.0712063 12.3385 0.489506L7.51701 5.84667C7.14704 6.27231 7.15766 6.95058 7.54074 7.36166C7.91445 7.7627 8.50686 7.7627 8.88057 7.36166L12.056 3.83339V21.6043C12.056 22.1961 12.4877 22.6758 13.0203 22.6758C13.5529 22.6758 13.9846 22.1961 13.9846 21.6043V3.83346L17.1601 7.36173C17.5432 7.77281 18.1536 7.761 18.5236 7.33536C18.8844 6.92014 18.8844 6.26189 18.5235 5.84667Z" fill="#919CA7"/>
</svg>
